<mxfile host="65bd71144e">
    <diagram name="Page-1" id="9tQ1tSP2HzV1Um7QykBu">
        <mxGraphModel dx="657" dy="735" grid="1" gridSize="10" guides="1" tooltips="1" connect="1" arrows="1" fold="1" page="1" pageScale="1" pageWidth="827" pageHeight="1169" math="0" shadow="0">
            <root>
                <mxCell id="0"/>
                <mxCell id="1" parent="0"/>
                <mxCell id="MDDdXcsnkMQ_tbPxS7x7-1" value="&lt;b&gt;deployment External Smart Charging via LC&lt;/b&gt;" style="shape=umlFrame;whiteSpace=wrap;html=1;pointerEvents=0;width=280;height=30;" parent="1" vertex="1">
                    <mxGeometry x="40" y="40" width="760" height="430" as="geometry"/>
                </mxCell>
                <mxCell id="MDDdXcsnkMQ_tbPxS7x7-18" style="rounded=0;orthogonalLoop=1;jettySize=auto;html=1;endArrow=openThin;endFill=0;endSize=10;startSize=10;dashed=1;dashPattern=8 8;startArrow=none;startFill=0;entryX=1.001;entryY=0.466;entryDx=0;entryDy=0;entryPerimeter=0;exitX=0;exitY=0;exitDx=0;exitDy=55;exitPerimeter=0;jumpStyle=none;" parent="1" source="MDDdXcsnkMQ_tbPxS7x7-9" target="MDDdXcsnkMQ_tbPxS7x7-8" edge="1">
                    <mxGeometry relative="1" as="geometry">
                        <mxPoint x="440" y="410" as="sourcePoint"/>
                        <mxPoint x="651" y="150" as="targetPoint"/>
                    </mxGeometry>
                </mxCell>
                <mxCell id="2" value="e.g. IEEE 2030.5 / ECHONET-lite" style="edgeLabel;html=1;align=center;verticalAlign=middle;resizable=0;points=[];" vertex="1" connectable="0" parent="MDDdXcsnkMQ_tbPxS7x7-18">
                    <mxGeometry x="-0.1924" y="-1" relative="1" as="geometry">
                        <mxPoint as="offset"/>
                    </mxGeometry>
                </mxCell>
                <mxCell id="MDDdXcsnkMQ_tbPxS7x7-17" style="rounded=0;orthogonalLoop=1;jettySize=auto;html=1;endArrow=openThin;endFill=0;endSize=10;startSize=10;startArrow=none;startFill=0;entryX=0;entryY=0;entryDx=0;entryDy=160;entryPerimeter=0;exitX=0;exitY=0;exitDx=60;exitDy=0;exitPerimeter=0;jumpStyle=arc;jumpSize=10;" parent="1" source="MDDdXcsnkMQ_tbPxS7x7-8" target="MDDdXcsnkMQ_tbPxS7x7-10" edge="1">
                    <mxGeometry relative="1" as="geometry">
                        <mxPoint x="440" y="270" as="sourcePoint"/>
                        <mxPoint x="600" y="270" as="targetPoint"/>
                    </mxGeometry>
                </mxCell>
                <mxCell id="MDDdXcsnkMQ_tbPxS7x7-2" value="&lt;p&gt;&lt;b&gt;CSMS&lt;/b&gt;&lt;/p&gt;" style="verticalAlign=top;align=center;spacingTop=0;spacingLeft=10;spacingRight=12;shape=cube;size=10;direction=south;fontStyle=0;html=1;whiteSpace=wrap;fillColor=#FFDBC5;strokeColor=#000000;fillStyle=auto;gradientColor=#FFEFE5;shadow=1;" parent="1" vertex="1">
                    <mxGeometry x="80" y="220" width="120" height="70" as="geometry"/>
                </mxCell>
                <mxCell id="MDDdXcsnkMQ_tbPxS7x7-3" style="rounded=0;orthogonalLoop=1;jettySize=auto;html=1;endArrow=none;endFill=0;endSize=10;startSize=10;startArrow=openThin;startFill=0;entryX=0;entryY=0;entryDx=40;entryDy=120;entryPerimeter=0;exitX=0.572;exitY=-0.011;exitDx=0;exitDy=0;exitPerimeter=0;" parent="1" source="MDDdXcsnkMQ_tbPxS7x7-2" target="MDDdXcsnkMQ_tbPxS7x7-8" edge="1">
                    <mxGeometry relative="1" as="geometry">
                        <mxPoint x="270" y="690" as="sourcePoint"/>
                        <mxPoint x="640" y="690" as="targetPoint"/>
                    </mxGeometry>
                </mxCell>
                <mxCell id="MDDdXcsnkMQ_tbPxS7x7-8" value="&lt;p&gt;&lt;b&gt;Local Controller&lt;/b&gt;&lt;/p&gt;" style="verticalAlign=top;align=center;spacingTop=0;spacingLeft=10;spacingRight=12;shape=cube;size=10;direction=south;fontStyle=0;html=1;whiteSpace=wrap;fillColor=#FFDBC5;strokeColor=#000000;fillStyle=auto;gradientColor=#FFEFE5;shadow=1;" parent="1" vertex="1">
                    <mxGeometry x="310" y="220" width="120" height="70" as="geometry"/>
                </mxCell>
                <mxCell id="MDDdXcsnkMQ_tbPxS7x7-9" value="&lt;p&gt;&lt;b&gt;EMS&lt;/b&gt;&lt;/p&gt;" style="verticalAlign=top;align=center;spacingTop=0;spacingLeft=10;spacingRight=12;shape=cube;size=10;direction=south;fontStyle=0;html=1;whiteSpace=wrap;fillColor=#FFDBC5;strokeColor=#000000;fillStyle=auto;gradientColor=#FFEFE5;shadow=1;" parent="1" vertex="1">
                    <mxGeometry x="310" y="370" width="120" height="70" as="geometry"/>
                </mxCell>
                <mxCell id="MDDdXcsnkMQ_tbPxS7x7-10" value="&lt;p&gt;&lt;b&gt;Charging Station&lt;br&gt;CS01&lt;/b&gt;&lt;/p&gt;" style="verticalAlign=top;align=center;spacingTop=0;spacingLeft=10;spacingRight=12;shape=cube;size=10;direction=south;fontStyle=0;html=1;whiteSpace=wrap;fillColor=#FFDBC5;strokeColor=#000000;fillStyle=auto;gradientColor=#FFEFE5;shadow=1;" parent="1" vertex="1">
                    <mxGeometry x="590" y="370" width="170" height="70" as="geometry"/>
                </mxCell>
                <mxCell id="MDDdXcsnkMQ_tbPxS7x7-12" value="&lt;p&gt;&lt;b&gt;Charging Station&lt;br&gt;CS02&lt;/b&gt;&lt;/p&gt;" style="verticalAlign=top;align=center;spacingTop=0;spacingLeft=10;spacingRight=12;shape=cube;size=10;direction=south;fontStyle=0;html=1;whiteSpace=wrap;fillColor=#FFDBC5;strokeColor=#000000;fillStyle=auto;gradientColor=#FFEFE5;shadow=1;" parent="1" vertex="1">
                    <mxGeometry x="590" y="220" width="170" height="70" as="geometry"/>
                </mxCell>
                <mxCell id="MDDdXcsnkMQ_tbPxS7x7-13" value="&lt;p&gt;&lt;b&gt;Charging Station&lt;br&gt;&lt;/b&gt;&lt;b style=&quot;background-color: initial;&quot;&gt;CS03&lt;/b&gt;&lt;/p&gt;" style="verticalAlign=top;align=center;spacingTop=0;spacingLeft=10;spacingRight=12;shape=cube;size=10;direction=south;fontStyle=0;html=1;whiteSpace=wrap;fillColor=#FFDBC5;strokeColor=#000000;fillStyle=auto;gradientColor=#FFEFE5;shadow=1;" parent="1" vertex="1">
                    <mxGeometry x="590" y="70" width="170" height="70" as="geometry"/>
                </mxCell>
                <mxCell id="MDDdXcsnkMQ_tbPxS7x7-14" style="rounded=0;orthogonalLoop=1;jettySize=auto;html=1;endArrow=openThin;endFill=0;endSize=10;startSize=10;startArrow=none;startFill=0;entryX=0;entryY=0;entryDx=40;entryDy=170;entryPerimeter=0;exitX=0.572;exitY=0.003;exitDx=0;exitDy=0;exitPerimeter=0;jumpStyle=arc;jumpSize=10;" parent="1" source="MDDdXcsnkMQ_tbPxS7x7-8" target="MDDdXcsnkMQ_tbPxS7x7-12" edge="1">
                    <mxGeometry relative="1" as="geometry">
                        <mxPoint x="430" y="260" as="sourcePoint"/>
                        <mxPoint x="539" y="260" as="targetPoint"/>
                    </mxGeometry>
                </mxCell>
                <mxCell id="MDDdXcsnkMQ_tbPxS7x7-15" style="rounded=0;orthogonalLoop=1;jettySize=auto;html=1;endArrow=openThin;endFill=0;endSize=10;startSize=10;startArrow=none;startFill=0;entryX=1;entryY=1;entryDx=0;entryDy=0;entryPerimeter=0;exitX=0;exitY=0;exitDx=0;exitDy=0;exitPerimeter=0;jumpStyle=none;" parent="1" source="MDDdXcsnkMQ_tbPxS7x7-8" target="MDDdXcsnkMQ_tbPxS7x7-13" edge="1">
                    <mxGeometry relative="1" as="geometry">
                        <mxPoint x="440" y="270" as="sourcePoint"/>
                        <mxPoint x="600" y="270" as="targetPoint"/>
                    </mxGeometry>
                </mxCell>
            </root>
        </mxGraphModel>
    </diagram>
</mxfile>